<!DOCTYPE svg PUBLIC "-//W3C//DTD SVG 20010904//EN" "http://www.w3.org/TR/2001/REC-SVG-20010904/DTD/svg10.dtd">
<svg version="1.0" xmlns="http://www.w3.org/2000/svg" width="428px" height="336px" viewBox="0 0 4280 3360" preserveAspectRatio="xMidYMid meet">
<g id="layer1" fill="#010101" stroke="none">
 <path d="M3319 3336 c-2 -2 -89 -16 -194 -31 -245 -34 -279 -49 -278 -118 14 -742 25 -2914 16 -3003 l-5 -41 -192 1 c-150 1 -196 -2 -209 -13 -25 -20 -21 -37 11 -49 37 -15 333 -36 391 -28 25 3 82 1 126 -4 96 -13 752 -13 950 0 142 9 232 30 242 56 3 8 -2 25 -10 38 -16 24 -17 24 -84 11 -37 -7 -115 -15 -172 -17 l-105 -3 -9 40 c-7 26 -6 123 3 285 14 276 9 1409 -8 1660 -12 168 -16 625 -9 952 2 124 1 231 -2 236 -18 27 -58 32 -254 32 -112 0 -206 -2 -208 -4z m306 -98 c50 -39 85 -97 85 -142 0 -62 -12 -73 -46 -48 -60 43 -154 152 -154 178 0 10 41 26 81 33 4 1 19 -9 34 -21z m-78 -130 c72 -73 136 -143 142 -155 13 -26 15 -113 2 -113 -28 0 -381 344 -381 372 0 3 12 11 28 16 63 23 71 19 209 -120z m-290 80 c21 -17 123 -115 227 -217 217 -214 243 -254 216 -327 l-11 -27 -82 79 c-45 44 -119 117 -165 164 -45 47 -134 137 -198 201 l-116 116 27 22 c37 29 58 27 102 -11z m-167 -32 c85 -73 585 -587 596 -613 8 -18 14 -51 14 -73 0 -73 -26 -55 -231 165 -36 39 -155 155 -266 260 -197 185 -227 219 -235 260 -2 15 4 21 27 26 39 8 64 2 95 -25z m-94 -118 c51 -38 685 -681 700 -710 15 -28 20 -118 7 -118 -22 1 -63 40 -221 205 -95 99 -189 191 -209 205 -37 25 -80 69 -226 229 -76 84 -97 123 -97 184 0 33 7 34 46 5z m340 -538 c197 -197 364 -372 371 -387 15 -34 17 -110 3 -118 -6 -3 -179 164 -385 372 -363 365 -375 379 -375 416 0 33 14 77 24 77 2 0 165 -162 362 -360z m22 -222 c330 -326 360 -359 367 -397 7 -41 -1 -101 -13 -101 -4 0 -111 107 -237 237 -127 130 -296 302 -377 381 -134 131 -148 148 -148 179 0 44 17 76 35 66 7 -5 175 -168 373 -365z m16 -214 c190 -190 348 -355 351 -367 4 -13 5 -50 3 -82 l-3 -60 -85 89 c-47 50 -213 216 -369 370 -163 162 -290 295 -298 313 -7 18 -13 55 -13 83 l0 51 34 -26 c19 -15 190 -182 380 -371z m-274 59 c41 -43 126 -125 190 -183 167 -152 388 -369 421 -414 32 -44 37 -82 14 -126 -17 -34 -19 -34 -46 -19 -19 10 -20 9 -9 -11 6 -11 22 -37 36 -57 13 -20 24 -46 24 -59 0 -25 -19 -74 -30 -74 -3 0 -109 108 -235 241 -127 132 -279 286 -340 341 -60 55 -120 114 -132 131 -26 35 -40 109 -27 138 8 18 46 -16 316 -283 168 -167 320 -311 338 -322 l32 -18 -12 22 c-7 13 -155 166 -328 341 -174 175 -322 329 -329 341 -7 13 -12 47 -13 76 l0 53 28 -20 c16 -11 62 -55 102 -98z m71 -465 c221 -216 551 -562 561 -587 10 -27 2 -97 -13 -106 -4 -3 -34 22 -66 57 -32 35 -196 200 -364 368 -325 324 -329 329 -314 406 l6 35 37 -30 c20 -16 89 -81 153 -143z m176 -379 c283 -275 297 -290 356 -378 36 -51 46 -96 31 -134 -4 -11 -122 101 -385 363 -374 372 -379 378 -379 418 0 73 7 77 59 33 25 -21 168 -157 318 -302z m-71 -149 c141 -148 293 -300 336 -336 86 -73 106 -101 114 -166 10 -86 -27 -85 -90 1 -20 26 -178 188 -351 359 -173 171 -315 318 -315 327 0 24 28 85 38 85 6 0 126 -121 268 -270z m63 -254 c178 -177 336 -339 352 -360 34 -45 42 -126 13 -126 -31 0 -715 684 -734 736 -6 16 -9 44 -5 61 5 30 8 32 28 22 12 -7 168 -156 346 -333z m-164 -43 c102 -98 196 -194 210 -214 13 -20 47 -52 75 -70 44 -29 159 -151 228 -243 24 -32 29 -84 11 -117 -10 -19 -21 -10 -139 108 -71 70 -136 135 -145 143 -124 118 -430 443 -442 469 -15 36 -10 101 8 101 5 0 93 -80 194 -177z m133 -343 c162 -162 301 -305 309 -317 8 -12 12 -27 8 -34 -9 -14 -75 -5 -114 15 -44 24 -507 497 -530 543 -20 41 -28 103 -14 116 9 10 14 5 341 -323z m-188 -2 c21 -27 102 -110 179 -184 84 -81 141 -144 141 -155 0 -16 -7 -19 -46 -19 -25 0 -55 5 -67 11 -29 15 -278 260 -328 322 -42 53 -49 88 -23 125 l15 22 45 -36 c25 -20 62 -59 84 -86z m-71 -130 c25 -29 76 -84 114 -123 37 -40 67 -76 67 -82 0 -23 -29 -34 -66 -27 -28 5 -57 25 -108 73 -88 81 -95 93 -96 159 0 47 2 52 22 52 14 0 38 -19 67 -52z m-41 -191 c2 -10 -3 -17 -12 -17 -18 0 -29 16 -21 31 9 14 29 6 33 -14z"/>
 <path d="M755 3300 c-159 -10 -446 -45 -497 -61 -66 -21 -70 -32 -79 -201 -4 -84 -11 -209 -15 -278 -4 -79 -2 -177 6 -265 18 -199 20 -631 3 -970 -8 -159 -16 -472 -19 -695 -2 -223 -7 -477 -11 -566 l-6 -161 80 -21 c44 -12 96 -22 116 -22 21 0 79 -9 130 -19 137 -29 191 -33 302 -21 55 6 174 15 265 19 181 9 259 25 528 105 147 44 279 104 359 163 57 42 173 254 227 414 28 84 80 276 90 330 3 19 13 151 20 293 18 318 8 604 -25 700 -11 33 -25 96 -31 140 -32 252 -70 368 -189 571 -93 159 -159 248 -211 284 -24 16 -54 40 -68 53 -37 36 -196 123 -266 147 -167 56 -427 78 -709 61z m199 -121 c59 -42 89 -86 89 -130 0 -71 -14 -69 -108 16 -75 69 -115 117 -115 141 0 16 102 -5 134 -27z m471 -21 c66 -22 135 -48 154 -59 58 -34 199 -148 242 -197 47 -54 139 -199 139 -220 0 -8 16 -39 35 -70 48 -78 70 -149 110 -349 64 -320 75 -422 75 -698 0 -147 -6 -305 -15 -385 -17 -169 -60 -370 -91 -431 -12 -25 -32 -76 -44 -113 -12 -37 -37 -90 -56 -118 -19 -27 -34 -54 -34 -59 0 -17 -71 -88 -119 -118 -60 -39 -214 -104 -334 -140 -139 -43 -356 -86 -369 -73 -15 15 -28 159 -27 312 1 123 -9 310 -42 765 -15 207 4 1026 30 1270 12 118 31 499 31 638 l0 97 98 -6 c74 -5 126 -16 217 -46z m-682 30 c12 -6 75 -61 139 -121 119 -112 148 -154 148 -216 0 -16 -7 -34 -16 -42 -13 -11 -40 13 -200 172 -183 183 -184 184 -163 202 25 20 61 22 92 5z m-172 -31 c35 -16 418 -413 437 -454 14 -29 14 -34 -2 -57 -9 -14 -22 -26 -29 -26 -7 0 -46 37 -86 83 -41 45 -145 151 -233 236 -152 147 -196 200 -183 221 8 14 64 12 96 -3z m-175 -27 c22 -17 157 -149 302 -293 270 -269 302 -309 302 -380 0 -69 -22 -58 -147 74 -133 142 -290 302 -445 458 -82 82 -108 113 -108 133 0 25 11 33 46 37 6 0 29 -13 50 -29z m153 -342 c435 -429 429 -423 436 -461 10 -49 3 -91 -16 -95 -20 -4 -400 362 -550 528 -61 69 -118 139 -125 157 -20 48 -18 113 4 113 3 0 116 -109 251 -242z m-241 18 c29 -16 629 -615 656 -656 18 -28 21 -82 5 -111 -9 -18 -44 14 -346 318 -200 201 -342 352 -350 372 -12 29 -10 91 3 91 3 0 17 -6 32 -14z m74 -276 c51 -55 154 -155 228 -223 74 -67 185 -172 246 -234 120 -119 135 -146 114 -208 -11 -33 -13 -34 -36 -22 -14 7 -134 125 -267 263 -133 137 -271 276 -306 309 -81 77 -107 126 -102 198 2 35 32 15 123 -83z m2 -198 c23 -25 97 -100 166 -166 69 -65 194 -189 278 -274 162 -165 173 -184 134 -232 l-18 -22 -44 37 c-49 41 -261 253 -478 476 -134 138 -142 149 -142 186 0 22 3 43 7 47 16 15 58 -7 97 -52z m242 -447 c173 -173 319 -326 324 -341 12 -30 13 -104 3 -104 -16 0 -172 131 -190 159 -24 38 -264 283 -386 394 l-97 88 0 60 c0 47 3 59 16 59 9 0 157 -142 330 -315z m122 -321 c177 -171 213 -219 220 -285 4 -42 2 -49 -14 -49 -10 0 -79 62 -155 138 -75 75 -175 173 -221 217 -46 44 -130 131 -186 193 -92 103 -102 118 -102 152 0 84 3 83 164 -78 83 -82 215 -212 294 -288z m-117 -89 c178 -179 331 -338 341 -353 19 -29 25 -112 8 -112 -17 0 -223 188 -295 270 -38 43 -135 141 -215 216 -80 76 -155 153 -167 173 -27 43 -33 131 -9 131 8 0 160 -146 337 -325z m-156 -43 c282 -280 502 -506 514 -529 18 -36 11 -123 -11 -123 -6 0 -87 79 -181 176 -177 182 -207 208 -207 178 0 -9 51 -69 113 -133 61 -64 138 -143 170 -176 31 -33 75 -76 97 -96 35 -32 40 -41 40 -80 0 -25 -6 -53 -13 -63 -12 -16 -17 -12 -64 42 -28 32 -65 65 -80 73 -16 8 -107 97 -203 197 -95 101 -219 224 -276 274 -106 93 -114 105 -114 173 0 80 10 77 124 -33 102 -98 156 -137 178 -130 6 2 -53 68 -130 146 -132 133 -141 145 -153 196 -14 65 -8 92 18 77 10 -6 90 -82 178 -169z m-150 -264 c21 -24 176 -177 344 -341 168 -165 316 -315 328 -335 27 -44 33 -132 8 -132 -22 0 -715 699 -732 739 -14 34 -10 111 7 111 4 0 25 -19 45 -42z m318 -517 c226 -228 363 -373 372 -395 16 -39 20 -116 6 -116 -5 0 -105 96 -222 213 -118 117 -243 241 -279 274 -110 103 -269 279 -276 307 -9 38 3 76 24 76 11 0 170 -152 375 -359z m-14 -183 c204 -199 289 -289 298 -313 l12 -35 -56 0 -56 0 -274 273 c-151 149 -281 284 -289 299 -14 27 -19 99 -8 111 12 11 80 -50 373 -335z m-143 -70 c231 -227 257 -257 248 -282 -21 -56 -101 -13 -239 129 -106 108 -168 155 -179 136 -4 -5 44 -55 104 -112 82 -76 110 -108 108 -123 -3 -18 -9 -21 -42 -19 -55 4 -117 38 -178 100 l-53 53 -2 165 c-1 98 2 165 7 165 6 0 107 -96 226 -212z m-209 -203 c3 -9 3 -19 -1 -22 -8 -9 -37 18 -30 28 8 14 24 11 31 -6z"/>
 </g>
<g id="layer2" fill="#f6f6f6" stroke="none">
 <path d="M0 1680 l0 -1680 2140 0 2140 0 0 1680 0 1680 -2140 0 -2140 0 0 -1680z m3753 1649 c12 -7 25 -16 28 -21 3 -5 4 -112 2 -236 -7 -327 -3 -784 9 -952 17 -251 22 -1384 8 -1660 -9 -162 -10 -259 -3 -285 l9 -40 105 3 c57 2 135 10 172 17 67 13 68 13 84 -11 8 -13 13 -30 10 -38 -10 -26 -100 -47 -242 -56 -198 -13 -854 -13 -950 0 -44 5 -101 7 -126 4 -58 -8 -354 13 -391 28 -32 12 -36 29 -11 49 13 11 59 14 209 13 l192 -1 5 41 c9 89 -2 2261 -16 3003 -1 69 33 84 278 118 105 15 192 29 194 31 11 10 414 3 434 -7z m-2464 -49 c63 -11 141 -30 175 -41 70 -24 229 -111 266 -147 14 -13 44 -37 68 -53 52 -36 118 -125 211 -284 119 -203 157 -319 189 -571 6 -44 20 -107 31 -140 33 -96 43 -382 25 -700 -7 -142 -17 -274 -20 -293 -10 -54 -62 -246 -90 -330 -54 -160 -170 -372 -227 -414 -80 -59 -212 -119 -359 -163 -269 -80 -347 -96 -528 -105 -91 -4 -210 -13 -265 -19 -111 -12 -165 -8 -302 21 -51 10 -109 19 -130 19 -20 0 -72 10 -116 22 l-80 21 6 161 c4 89 9 343 11 566 3 223 11 536 19 695 17 339 15 771 -3 970 -8 88 -10 186 -6 265 4 69 11 194 15 278 9 169 13 180 79 201 51 16 338 51 497 61 197 12 403 5 534 -20z"/>
 <path d="M3548 3248 c-42 -11 -46 -22 -22 -58 23 -35 103 -117 138 -142 34 -25 46 -14 46 48 0 30 -8 52 -29 81 -28 39 -78 84 -90 82 -3 -1 -23 -6 -43 -11z"/>
 <path d="M3338 3228 c-16 -5 -28 -13 -28 -16 0 -28 353 -372 381 -372 13 0 11 87 -2 113 -6 12 -70 82 -142 155 -138 139 -146 143 -209 120z"/>
 <path d="M3155 3199 l-27 -22 116 -116 c64 -64 153 -154 198 -201 46 -47 120 -120 165 -164 l82 -79 11 27 c27 73 1 113 -216 327 -276 271 -275 270 -329 228z"/>
 <path d="M2995 3181 c-23 -5 -29 -11 -27 -26 8 -41 38 -75 235 -260 111 -105 230 -221 266 -260 205 -220 231 -238 231 -165 0 22 -6 55 -14 73 -11 26 -511 540 -596 613 -31 27 -56 33 -95 25z"/>
 <path d="M2950 3033 c0 -61 21 -100 97 -184 146 -160 189 -204 226 -229 20 -14 114 -106 209 -205 158 -165 199 -204 221 -205 13 0 8 90 -7 118 -15 29 -649 672 -700 710 -39 29 -46 28 -46 -5z"/>
 <path d="M2960 2841 c-5 -11 -10 -37 -10 -58 0 -37 12 -51 375 -416 206 -208 379 -375 385 -372 14 8 12 84 -3 118 -9 22 -721 747 -733 747 -2 0 -8 -9 -14 -19z"/>
 <path d="M2960 2631 c-5 -11 -10 -35 -10 -54 0 -31 14 -48 148 -179 81 -79 250 -251 377 -381 126 -130 233 -237 237 -237 12 0 20 60 13 101 -7 38 -37 71 -367 397 -198 197 -366 360 -373 365 -9 5 -18 0 -25 -12z"/>
 <path d="M2960 2410 c0 -28 6 -65 13 -83 8 -18 135 -151 298 -313 156 -154 322 -320 369 -370 l85 -89 3 60 c2 32 1 69 -3 82 -5 22 -663 687 -731 738 l-34 26 0 -51z"/>
 <path d="M2970 2188 c1 -29 6 -63 13 -76 7 -12 155 -166 329 -341 173 -175 321 -328 328 -341 l12 -22 -32 18 c-18 11 -170 155 -338 322 -270 267 -308 301 -316 283 -13 -29 1 -103 27 -138 12 -17 72 -76 132 -131 61 -55 213 -209 340 -341 126 -133 232 -241 235 -241 11 0 30 49 30 74 0 13 -11 39 -24 59 -14 20 -30 46 -36 57 -11 20 -10 21 9 11 27 -15 29 -15 46 19 23 44 18 82 -14 126 -33 45 -254 262 -421 414 -64 58 -149 140 -190 183 -40 43 -86 87 -102 98 l-28 20 0 -53z"/>
 <path d="M2975 1796 c-15 -77 -11 -82 314 -406 168 -168 332 -333 364 -368 32 -35 62 -60 66 -57 15 9 23 79 13 106 -15 38 -608 644 -714 730 l-37 30 -6 -35z"/>
 <path d="M2976 1604 c-3 -9 -6 -34 -6 -56 0 -40 5 -46 379 -418 263 -262 381 -374 385 -363 20 51 -6 112 -92 218 -31 39 -552 545 -613 596 -38 32 -48 36 -53 23z"/>
 <path d="M2984 1365 c-7 -19 -14 -42 -14 -50 0 -9 142 -156 315 -327 173 -171 331 -333 351 -359 63 -86 100 -87 90 -1 -8 65 -28 93 -114 166 -43 36 -195 188 -336 336 -142 149 -262 270 -268 270 -5 0 -16 -16 -24 -35z"/>
 <path d="M2965 1187 c-4 -17 -1 -45 5 -61 19 -52 703 -736 734 -736 29 0 21 81 -13 126 -37 51 -669 678 -698 693 -20 10 -23 8 -28 -22z"/>
 <path d="M2965 977 c-4 -21 -1 -47 8 -68 12 -26 318 -351 442 -469 9 -8 74 -73 145 -143 118 -118 129 -127 139 -108 18 33 13 85 -11 117 -69 92 -184 214 -228 243 -28 18 -62 50 -75 70 -28 41 -389 391 -404 391 -6 0 -13 -15 -16 -33z"/>
 <path d="M2967 813 c-14 -13 -6 -75 14 -116 23 -46 486 -519 530 -543 39 -20 105 -29 114 -15 4 7 0 22 -8 34 -13 20 -578 590 -623 630 -11 9 -24 14 -27 10z"/>
 <path d="M2976 588 c-26 -37 -19 -72 23 -125 50 -62 299 -307 328 -322 12 -6 42 -11 67 -11 39 0 46 3 46 19 0 11 -57 74 -141 155 -77 74 -158 157 -179 184 -22 27 -59 66 -84 86 l-45 36 -15 -22z"/>
 <path d="M2960 358 c1 -66 8 -78 96 -159 51 -48 80 -68 108 -73 37 -7 66 4 66 27 0 6 -30 42 -67 82 -38 39 -89 94 -114 123 -29 33 -53 52 -67 52 -20 0 -22 -5 -22 -52z"/>
 <path d="M2975 181 c-8 -15 3 -31 21 -31 9 0 14 7 12 17 -4 20 -24 28 -33 14z"/>
 <path d="M820 3206 c0 -24 40 -72 115 -141 94 -85 108 -87 108 -16 0 71 -86 150 -173 159 -27 2 -50 1 -50 -2z"/>
 <path d="M1110 3113 c0 -139 -19 -520 -31 -638 -26 -244 -45 -1063 -30 -1270 33 -455 43 -642 42 -765 -1 -153 12 -297 27 -312 13 -13 230 30 369 73 120 36 274 101 334 140 48 30 119 101 119 118 0 5 15 32 34 59 19 28 44 81 56 118 12 37 32 88 44 113 31 61 74 262 91 431 9 80 15 238 15 385 0 276 -11 378 -75 698 -40 200 -62 271 -110 349 -19 31 -35 62 -35 70 0 21 -92 166 -139 220 -43 49 -184 163 -242 197 -19 11 -88 37 -154 59 -91 30 -143 41 -217 46 l-98 6 0 -97z"/>
 <path d="M651 3183 c-21 -18 -20 -19 163 -202 160 -159 187 -183 200 -172 9 8 16 26 16 42 0 62 -29 104 -148 216 -64 60 -127 115 -139 121 -31 17 -67 15 -92 -5z"/>
 <path d="M475 3160 c-13 -21 31 -74 183 -221 88 -85 192 -191 233 -236 40 -46 79 -83 86 -83 7 0 20 12 29 26 16 23 16 28 2 57 -19 41 -402 438 -437 454 -32 15 -88 17 -96 3z"/>
 <path d="M318 3153 c-12 -3 -18 -14 -18 -31 0 -20 26 -51 108 -133 155 -156 312 -316 445 -458 125 -132 147 -143 147 -74 0 71 -32 111 -302 380 -145 144 -280 276 -302 293 -39 30 -45 32 -78 23z"/>
 <path d="M287 3023 c-12 -11 -8 -72 7 -106 7 -18 64 -88 125 -157 150 -166 530 -532 550 -528 19 4 26 46 16 95 -7 38 -1 32 -436 461 -135 133 -248 242 -251 242 -2 0 -8 -3 -11 -7z"/>
 <path d="M265 2791 c-3 -17 0 -43 8 -62 8 -20 150 -171 350 -372 302 -304 337 -336 346 -318 16 29 13 83 -5 111 -27 41 -627 640 -656 656 -36 19 -35 19 -43 -15z"/>
 <path d="M259 2613 c-5 -72 21 -121 102 -198 35 -33 173 -172 306 -309 133 -138 253 -256 267 -263 23 -12 25 -11 36 22 21 62 6 89 -114 208 -61 62 -172 167 -246 234 -74 68 -177 168 -228 223 -91 98 -121 118 -123 83z"/>
 <path d="M287 2384 c-4 -4 -7 -25 -7 -47 0 -37 8 -48 142 -186 217 -223 429 -435 478 -476 l44 -37 18 22 c39 48 28 67 -134 232 -84 85 -209 209 -278 274 -69 66 -143 141 -166 166 -39 45 -81 67 -97 52z"/>
 <path d="M280 2141 l0 -60 97 -88 c122 -111 362 -356 386 -394 18 -28 174 -159 190 -159 10 0 9 74 -3 104 -13 34 -633 656 -654 656 -13 0 -16 -12 -16 -59z"/>
 <path d="M297 1986 c-4 -10 -7 -35 -7 -56 0 -34 10 -49 102 -152 56 -62 140 -149 186 -193 46 -44 146 -142 221 -217 76 -76 145 -138 155 -138 16 0 18 7 14 49 -7 66 -43 114 -220 285 -79 76 -211 206 -294 288 -120 120 -152 147 -157 134z"/>
 <path d="M280 1753 c0 -68 23 -99 190 -257 80 -75 177 -173 215 -216 72 -82 278 -270 295 -270 17 0 11 83 -8 112 -30 45 -662 678 -678 678 -10 0 -14 -13 -14 -47z"/>
 <path d="M273 1595 c-3 -9 0 -41 6 -71 12 -51 21 -63 153 -196 77 -78 136 -144 130 -146 -22 -7 -76 32 -178 130 -114 110 -124 113 -124 33 0 -68 8 -80 114 -173 57 -50 181 -173 276 -274 96 -100 187 -189 203 -197 15 -8 52 -41 80 -73 47 -54 52 -58 64 -42 7 10 13 38 13 63 0 39 -5 48 -40 80 -22 20 -66 63 -97 96 -32 33 -109 112 -170 176 -62 64 -113 124 -113 133 0 30 30 4 207 -178 94 -97 175 -176 181 -176 22 0 29 87 11 123 -18 34 -653 675 -692 698 -13 7 -19 6 -24 -6z"/>
 <path d="M265 1171 c-4 -25 -1 -50 8 -72 17 -40 710 -739 732 -739 25 0 19 88 -8 132 -12 20 -160 170 -328 335 -168 164 -323 317 -344 341 -20 23 -41 42 -45 42 -5 0 -11 -17 -15 -39z"/>
 <path d="M244 985 c-3 -14 -3 -37 0 -51 7 -28 166 -204 276 -307 36 -33 161 -157 279 -274 117 -117 217 -213 222 -213 14 0 10 77 -6 116 -18 45 -721 754 -747 754 -10 0 -20 -10 -24 -25z"/>
 <path d="M256 803 c-11 -12 -6 -84 8 -111 8 -15 138 -150 289 -299 l274 -273 56 0 56 0 -12 35 c-9 24 -94 114 -298 313 -293 285 -361 346 -373 335z"/>
 <path d="M253 445 l2 -165 53 -53 c61 -62 123 -96 178 -100 33 -2 39 1 42 19 2 15 -26 47 -108 123 -60 57 -108 107 -104 112 11 19 73 -28 179 -136 110 -113 179 -161 215 -150 28 9 32 34 11 64 -27 37 -449 451 -461 451 -5 0 -8 -67 -7 -165z"/>
 <path d="M246 201 c-7 -10 22 -37 30 -28 9 8 -3 37 -15 37 -5 0 -12 -4 -15 -9z"/>
 </g>

</svg>